<svg width="25" height="16" viewBox="0 0 25 16" fill="none" xmlns="http://www.w3.org/2000/svg">
<g id="android (1) 1" clip-path="url(#clip0_1_816)">
<g id="XMLID_197_">
<path id="XMLID_221_" d="M14.7692 16C15.5811 16 16.2891 15.5335 16.2891 14.9985V12.6596H17.304C17.913 12.6596 18.3189 12.392 18.3189 11.9909V5.31055H6.1499V11.9909C6.1499 12.3922 6.55586 12.6596 7.16479 12.6596H8.17975V14.9986C8.17975 15.5335 8.88762 16.0001 9.69969 16.0001C10.5115 16.0001 11.2195 15.5335 11.2195 14.9986V12.6596H13.2493V14.9986C13.2492 15.5335 13.9573 16 14.7692 16Z" fill="black"/>
<path id="XMLID_222_" d="M20.8539 11.9909C21.6658 11.9909 22.3737 11.5244 22.3737 10.9894V6.31162C22.3737 5.77948 21.6658 5.31055 20.8539 5.31055C20.0419 5.31055 19.334 5.77948 19.334 6.31162V10.9894C19.334 11.5244 20.0419 11.9909 20.8539 11.9909Z" fill="black"/>
<path id="XMLID_223_" d="M3.61499 11.9909C4.42698 11.9909 5.13493 11.5244 5.13493 10.9894V6.31162C5.13493 5.77948 4.42706 5.31055 3.61499 5.31055C2.80308 5.31055 2.09521 5.77948 2.09521 6.31162V10.9894C2.09521 11.5244 2.80308 11.9909 3.61499 11.9909Z" fill="black"/>
<path id="XMLID_224_" d="M17.1009 0.100908C16.898 -0.033636 16.596 -0.033636 16.3931 0.100908L15.0319 0.994825L14.9691 1.03615C14.1619 0.769837 13.257 0.636841 12.2493 0.63556C12.2443 0.63556 12.2395 0.635453 12.2345 0.635453H12.2343C12.2292 0.635453 12.2245 0.63556 12.2194 0.63556C11.2118 0.636841 10.3068 0.769837 9.49979 1.03615L9.43683 0.994825L8.07571 0.100908C7.87265 -0.033636 7.57074 -0.033636 7.36784 0.100908C7.16479 0.234704 7.16479 0.433264 7.36784 0.566953L8.68456 1.43471C8.2603 1.62136 7.87557 1.84977 7.541 2.11101C6.74003 2.73658 6.22915 3.55073 6.1589 4.43285C6.15825 4.44203 6.15687 4.45111 6.15622 4.46029C6.15193 4.52036 6.1499 4.58074 6.1499 4.64134H18.3189C18.3189 4.58074 18.3167 4.52036 18.3126 4.46029C18.3119 4.45111 18.3105 4.44203 18.3097 4.43285C18.2396 3.55073 17.7286 2.73653 16.9276 2.11106C16.5932 1.84982 16.2083 1.62142 15.7841 1.43476L17.1009 0.567007C17.304 0.433264 17.304 0.234704 17.1009 0.100908ZM9.69774 3.47374C9.27785 3.47374 8.93745 3.24945 8.93745 2.97278C8.93745 2.69611 9.27785 2.47182 9.69774 2.47182C10.1176 2.47182 10.458 2.69611 10.458 2.97278C10.458 3.24945 10.1176 3.47374 9.69774 3.47374ZM14.771 3.47374C14.3511 3.47374 14.0107 3.24945 14.0107 2.97278C14.0107 2.69611 14.3511 2.47182 14.771 2.47182C15.1909 2.47182 15.5313 2.69611 15.5313 2.97278C15.5313 3.24945 15.1909 3.47374 14.771 3.47374Z" fill="black"/>
</g>
</g>
<defs>
<clipPath id="clip0_1_816">
<rect width="24.2826" height="16" fill="white" transform="translate(0.0927734)"/>
</clipPath>
</defs>
</svg>
