<svg width="12" height="10" viewBox="0 0 12 10" fill="none" xmlns="http://www.w3.org/2000/svg">
<g id="star (1) 5" clip-path="url(#clip0_22_89)">
<path id="Vector" d="M11.3626 3.83573C11.2907 3.63325 11.0945 3.48989 10.8634 3.47074L7.71054 3.20866L6.46452 0.537725C6.37253 0.341494 6.16321 0.214844 5.93022 0.214844C5.69723 0.214844 5.48782 0.341494 5.39641 0.537725L4.15039 3.20866L0.997051 3.47074C0.765896 3.49027 0.570156 3.63363 0.497827 3.83573C0.425914 4.03822 0.492327 4.26032 0.667152 4.4007L3.05045 6.3141L2.34773 9.14786C2.29632 9.35622 2.38465 9.57168 2.57347 9.69665C2.67497 9.76417 2.79421 9.79789 2.91387 9.79789C3.0167 9.79789 3.11961 9.77287 3.21152 9.72251L5.93022 8.23415L8.64841 9.72251C8.84782 9.83161 9.09856 9.82162 9.28696 9.69665C9.47579 9.57168 9.56412 9.35622 9.5127 9.14786L8.80999 6.3141L11.1933 4.4007C11.368 4.26032 11.4345 4.03868 11.3626 3.83573V3.83573Z" fill="#F5C34B"/>
</g>
<defs>
<clipPath id="clip0_22_89">
<rect width="10.9219" height="10" fill="white" transform="translate(0.469238)"/>
</clipPath>
</defs>
</svg>
